<svg xmlns="http://www.w3.org/2000/svg" viewBox="0 0 1080 1080">
	<path fill="#1f6b48" fill-rule="evenodd" d="m537.25 8.14c7.56-0.08 20.16 0.56 28 1.41 7.84 0.85 19.2 2.64 25.25 3.98 6.05 1.34 16.85 4.39 24 6.78 7.15 2.39 17.27 6.27 22.5 8.62 5.23 2.36 14.23 6.99 20 10.3 5.77 3.32 13.65 8.21 17.5 10.86 3.85 2.66 10.15 7.35 14 10.43 3.85 3.07 10.77 9.27 15.37 13.78 4.61 4.51 10.73 10.9 13.61 14.2 2.88 3.3 7.89 9.6 11.14 14 3.25 4.4 8.77 12.72 12.26 18.5 3.49 5.78 8.28 14.55 10.64 19.5 2.36 4.95 5.84 13.05 7.74 18 1.89 4.95 4.4 12.15 5.57 16 1.18 3.85 3.04 10.82 4.14 15.5 1.1 4.68 2.76 13.22 3.69 19 1.39 8.68 1.78 21.17 2.84 133.34l44.5 11.32c24.48 6.22 45.63 11.6 47 11.96 1.38 0.35 16.45 4.21 33.5 8.59 17.05 4.37 31.31 8.25 31.68 8.62 0.38 0.37-0.61 18.44-2.2 40.17-1.58 21.73-3.36 45.57-3.95 53-0.59 7.42-1.3 15.75-1.58 18.5-0.28 2.75-0.53 5.67-0.57 6.5-0.04 0.83-0.69 8.92-1.45 18-0.76 9.08-2.07 24.15-2.92 33.5-0.84 9.35-2.17 22.85-2.95 30-0.78 7.15-2.84 25.37-4.57 40.5-1.73 15.12-3.29 28.85-3.47 30.5-0.18 1.65-0.6 5.02-0.93 7.5-0.33 2.48-1.5 11.02-2.6 19-1.09 7.98-2.43 17.2-2.96 20.5-0.54 3.3-2.37 14.33-4.06 24.5-1.69 10.17-3.75 21.87-4.58 26-0.83 4.12-2.89 12.9-4.58 19.5-1.7 6.6-5.19 17.62-7.78 24.5-2.59 6.87-7.4 17.9-10.7 24.5-3.3 6.6-8.37 15.83-11.26 20.5-2.89 4.67-8.47 13-12.39 18.5-3.92 5.5-11.48 15.17-16.8 21.5-5.32 6.33-17.48 19.16-27.03 28.53-9.54 9.36-19.83 19.19-22.85 21.83-3.02 2.65-12.92 10.78-22 18.08-9.08 7.3-20.33 16.05-25 19.44-4.67 3.4-14.35 10.24-21.5 15.21-7.15 4.98-19.52 13.28-27.5 18.46-7.98 5.18-16.08 10.21-18 11.18-1.92 0.97-3.73 2.04-4 2.38-0.27 0.33-3.65 2.53-7.5 4.89-3.85 2.36-9.48 5.73-12.5 7.5-3.02 1.76-10 5.76-15.5 8.88-5.5 3.13-10.11 5.67-10.25 5.65-0.14-0.02-1.94 1.02-4 2.29-2.06 1.28-8.02 4.6-13.25 7.38-5.23 2.78-16.14 8.48-39 20.3l0.03-778.5 10.24 2.26c5.62 1.24 19.68 4.33 31.23 6.86 11.55 2.53 22.8 4.98 25 5.45 2.2 0.46 8.05 1.77 13 2.89 4.95 1.13 15.3 3.45 23 5.16 7.7 1.71 16.48 3.67 19.5 4.36 3.02 0.69 6.79 1.66 11.24 3.02l-0.51-48c-0.29-27.6-0.95-49.91-1.54-52.5-0.57-2.48-1.28-6.3-1.58-8.5-0.3-2.2-1.72-8.05-3.16-13-1.44-4.95-3.96-12.38-5.62-16.5-1.65-4.13-3.52-8.63-4.16-10-0.63-1.38-2.67-4.98-4.53-8-1.86-3.03-5.46-8.65-8-12.5-2.54-3.85-10.25-12.66-17.13-19.57-8.31-8.35-15.7-14.69-22.01-18.87-5.23-3.47-13.77-8.45-19-11.07-5.23-2.62-14-6.14-19.5-7.82-5.5-1.68-13.83-3.86-18.5-4.85-6.51-1.38-13.06-1.8-28-1.81-15.2-0.01-21.48 0.4-28.5 1.86-4.95 1.03-13.05 3.18-18 4.77-4.95 1.6-14.4 5.56-21 8.8-6.6 3.24-15.43 8.29-19.62 11.23-4.19 2.93-11.12 8.48-15.39 12.33-4.27 3.85-10.55 10.37-13.94 14.5-3.4 4.12-8.23 10.65-10.75 14.5-2.51 3.85-6.65 11.16-9.19 16.25-2.53 5.09-5.68 12.06-6.98 15.5-1.31 3.44-3.53 10.97-4.95 16.75-1.41 5.78-3.04 14.89-3.62 20.25-0.58 5.36-1.06 29.1-1.06 52.75 0 23.65 0.34 42.8 0.75 42.56 0.41-0.24 2.32-0.68 4.25-0.98 1.93-0.3 8.45-1.69 14.5-3.09 6.05-1.39 13.93-3.15 17.5-3.89 3.57-0.75 15.95-3.47 27.5-6.05 11.55-2.58 22.13-4.87 23.5-5.08 1.38-0.21 11.5-2.43 22.5-4.94 11-2.5 20.56-4.54 21.25-4.54 1 0.01 1.25 78.48 1.25 389.01 0 213.95-0.11 389.01-0.25 389.02-0.14 0.01-3.85-1.84-8.25-4.12-4.4-2.27-16.1-8.43-26-13.68-9.9-5.26-24.3-13.14-32-17.52-7.7-4.37-17.37-10-21.5-12.5-4.12-2.5-15.06-9.31-24.29-15.12-9.24-5.82-18.26-11.48-20.05-12.58-1.79-1.1-9.08-6.01-16.21-10.91-7.12-4.9-21.05-14.99-30.95-22.42-9.9-7.43-21.82-16.65-26.5-20.5-4.68-3.85-8.39-7.38-8.25-7.84 0.14-0.45-0.15-0.72-0.63-0.58-0.48 0.14-3.75-2.21-7.25-5.22-3.5-3.02-14.02-13.14-23.37-22.5-9.35-9.37-18.8-19.08-21-21.58-2.2-2.5-4.9-5.66-6-7.01-1.1-1.35-4.28-5.38-7.06-8.95-2.79-3.57-7.78-10.54-11.1-15.49-3.32-4.95-8.07-12.37-10.55-16.5-2.49-4.12-6.52-11.33-8.97-16-2.45-4.67-6.06-12.33-8.02-17-1.95-4.67-4.71-12.1-6.12-16.5-1.4-4.4-3.45-11.37-4.55-15.5-1.1-4.12-3.13-12.9-4.52-19.5-1.39-6.6-3.43-17.17-4.54-23.5-1.11-6.33-3.12-18.7-4.48-27.5-1.35-8.8-3.61-25-5-36-1.4-11-3.01-23.83-3.58-28.5-0.57-4.67-1.7-14.12-2.5-21-0.81-6.87-2.37-21.27-3.49-32-1.11-10.73-2.47-23.77-3.02-29-0.55-5.23-1.67-17.37-2.5-27-0.83-9.62-1.97-23.35-2.53-30.5-0.57-7.15-1.69-21.77-2.5-32.5-0.81-10.73-2.15-28.95-2.99-40.5-0.83-11.55-1.91-25.5-2.4-31-0.48-5.5-0.59-10.28-0.23-10.63 0.36-0.34 5.15-1.75 10.65-3.13 5.5-1.38 20.8-5.3 34-8.7 13.2-3.41 31.65-8.17 41-10.59 9.35-2.41 28.93-7.37 43.5-11.03 14.57-3.65 26.81-6.93 27.18-7.28 0.38-0.35 0.88-27.64 1.12-60.64 0.36-50.11 0.71-61.81 2.14-71 0.94-6.05 3.21-16.85 5.05-24 1.84-7.15 5.27-18.4 7.62-25 2.34-6.6 7.23-17.85 10.85-25 3.63-7.15 9.1-16.82 12.18-21.5 3.07-4.67 8.74-12.55 12.6-17.5 3.85-4.95 11.02-13.05 15.91-18 4.9-4.95 11.82-11.52 15.38-14.61 3.56-3.08 10.74-8.74 15.97-12.58 5.23-3.84 12.65-8.8 16.5-11.03 3.85-2.22 11.5-6.29 17-9.03 5.5-2.75 14.27-6.6 19.5-8.55 5.23-1.96 14.23-4.9 20-6.54 5.77-1.64 14.1-3.73 18.5-4.64 4.4-0.9 12.95-2.23 19-2.94 6.05-0.72 17.19-1.37 24.75-1.44zm94.47 446.91l171.93 45.68-3.92 67.75-167.54-37.97c0 0 0.42 140.07 0.42 403.68 72.56-17.19 138.18-102.66 172.53-174.1 35.4-73.6 41.12-327.33 41.12-327.33l-215.47-55.1zm-408.37-19.27l7.15 81.16 213.61-50.65v-84.4zm13.63 151.28c9.54 101.51 17.88 169.88 51.03 217.54 73.55 114.99 157.47 129.5 163.69 130.53l-6.3-394.17c0 0-124.81 29.98-208.42 46.1z"/>
</svg>
