<svg xmlns="http://www.w3.org/2000/svg" viewBox="0 0 1080 1080" width="1080" height="1080">
	<path fill="#f99e42" fill-rule="evenodd" d="m831 109.58c-3.03 0.79-8.88 3.09-13 5.1-4.98 2.43-9.55 5.7-13.6 9.74-3.36 3.34-7.29 8.44-8.75 11.33-1.46 2.89-3.32 8.06-4.14 11.5-0.81 3.44-1.49 9.51-1.5 13.5 0 3.99 0.49 9.61 1.1 12.5 0.6 2.89 2.4 8.06 4 11.5 1.75 3.78 5.16 8.56 8.64 12.11 3.16 3.22 9.12 8.03 13.25 10.68 4.12 2.66 10.87 6.37 15 8.23 4.12 1.87 12.34 5.38 18.25 7.81 5.91 2.43 12.44 5.48 14.5 6.77 2.06 1.29 5.21 3.99 7 6 1.86 2.09 3.52 5.25 3.88 7.4 0.35 2.06 0.44 5.55 0.21 7.75-0.23 2.2-1.55 5.58-2.94 7.5-1.39 1.92-4.75 4.63-7.47 6-4.34 2.2-6.18 2.5-15.43 2.47-8.41-0.03-11.6-0.47-16-2.22-3.03-1.2-7.97-4.37-11-7.04-3.03-2.67-6.85-6.96-8.5-9.53-1.65-2.57-3.45-4.67-4-4.65-0.55 0.01-6.17 3-12.5 6.65-6.33 3.65-13.19 7.68-15.25 8.97l-3.75 2.35c4.2 8.41 8.69 13.92 13.87 19.07 6.82 6.77 10.41 9.44 17.13 12.75 4.67 2.31 12.1 5.16 16.5 6.35 6.67 1.81 10.83 2.18 25 2.23 13.45 0.04 18.36-0.32 23.5-1.75 3.58-0.99 9.2-3.12 12.5-4.72 3.3-1.6 8.67-5.28 11.93-8.17 3.26-2.89 7.37-7.51 9.14-10.26 1.77-2.75 4.12-7.7 5.24-11 1.11-3.3 2.32-9.6 2.68-14 0.45-5.58 0.18-10.42-0.91-16-0.86-4.4-2.89-10.7-4.5-14-1.61-3.3-4.88-8.21-7.25-10.9-2.38-2.7-7.03-6.81-10.33-9.14-3.3-2.32-10.05-6.23-15-8.68-4.95-2.44-15.08-7.02-22.5-10.17-7.42-3.15-15.64-7.28-18.25-9.17-2.63-1.9-5.64-5.23-6.75-7.44-1.1-2.2-2-5.58-2-7.5 0-1.92 0.6-4.96 1.33-6.75 0.74-1.79 2.65-4.4 4.25-5.79 1.61-1.4 4.72-3.15 6.92-3.89 2.44-0.82 6.53-1.17 10.5-0.9 4.61 0.32 7.88 1.23 11.25 3.14 2.61 1.48 6.61 5.05 8.89 7.94 2.28 2.89 4.65 5.09 5.25 4.9 0.61-0.19 7.3-4.57 14.86-9.75 7.56-5.17 13.75-9.96 13.74-10.65 0-0.69-1.69-3.48-3.75-6.2-2.05-2.73-6.44-7.14-9.74-9.8-3.3-2.67-8.7-6.17-12-7.78-3.3-1.61-8.7-3.61-12-4.45-3.96-1.01-10.41-1.51-19-1.46-7.9 0.04-15.16 0.64-18.5 1.52zm-112.17 71.15c-0.31 65.67-0.46 71.06-2.14 74.77-0.99 2.2-2.79 5.07-4 6.38-1.2 1.31-3.65 2.99-5.44 3.75-1.79 0.75-6.29 1.36-10 1.36-4.98-0.01-7.91-0.61-11.18-2.25-2.44-1.23-5.95-4.04-7.79-6.24-1.84-2.2-4.12-5.93-5.06-8.3-1.23-3.06-2.15-4.13-3.22-3.71-0.83 0.32-7.92 4.28-15.77 8.8-9.84 5.67-14.26 8.75-14.25 9.96 0.01 0.96 0.98 3.66 2.16 6 1.18 2.34 4.21 6.89 6.75 10.11 2.54 3.22 6.64 7.35 9.11 9.17 2.47 1.82 7.42 4.69 11 6.38 3.58 1.69 10.33 3.81 15 4.7 6.08 1.17 11.63 1.48 19.5 1.12 7.72-0.36 13.23-1.23 18.5-2.92 4.13-1.33 10.16-4.19 13.42-6.36 3.25-2.17 7.45-5.75 9.31-7.95 1.87-2.2 4.7-6.7 6.28-10 1.58-3.3 3.69-9.15 4.69-13 1.65-6.43 1.8-12.86 1.8-79.5v-72.5l-38.34-0.54zm-421.83 47.2c-1.92 1.02-5.56 4.03-8.09 6.71-2.52 2.67-6.01 7.67-7.75 11.11-1.74 3.44-3.88 9.29-4.76 13-1.17 4.92-1.47 9.6-1.11 17.25 0.38 7.92 1.14 12.22 3.09 17.5 1.43 3.85 4.25 9.7 6.28 13 2.02 3.3 6.71 10.05 10.4 15 3.7 4.95 11.71 14.85 17.81 22 6.09 7.15 10.98 13.09 10.86 13.2-0.13 0.11-10.58-1.55-23.23-3.68-12.65-2.13-31.1-5.28-41-6.99-9.9-1.71-24.52-4.25-32.5-5.64-7.97-1.38-23.05-4.08-33.5-5.99-10.45-1.92-28.9-5.32-41-7.56-17.51-3.25-23.43-3.98-29-3.55-3.85 0.29-9.7 1.56-13 2.81-3.3 1.26-8.25 4.13-11 6.39-3.6 2.95-6.12 6.29-9 11.93-3.7 7.26-4 8.43-3.97 15.96 0.02 7.02 0.44 9 3.15 14.62 2.14 4.44 4.97 8.18 8.97 11.82 3.64 3.31 7.94 6.09 11.35 7.34 3.03 1.11 28.11 8.05 55.75 15.43 27.64 7.37 51.71 14.05 53.5 14.83 2.42 1.05 2.74 1.44 1.25 1.5-1.1 0.04-6.72 0.52-12.5 1.07-5.77 0.54-35.92 2.79-67 5-31.07 2.21-59.54 4.46-63.25 5.01-3.71 0.55-9.11 1.88-12 2.96-2.89 1.08-7.72 3.72-10.75 5.86-3.02 2.15-6.71 5.65-8.2 7.79-1.49 2.14-3.74 6.14-5 8.89-1.93 4.21-2.3 6.66-2.3 15.5 0 9.51 0.26 10.99 2.75 15.75 1.51 2.89 4.66 7.18 7 9.55 2.34 2.36 6.73 5.46 9.75 6.89 3.03 1.43 8.2 3.16 11.5 3.84 4.63 0.97 20.07 1.1 67.5 0.6 33.83-0.36 66-0.93 71.5-1.26 9.06-0.56 9.86-0.47 8.5 0.95-0.82 0.86-22.76 8.12-48.75 16.12-25.99 8.01-50.06 15.81-53.5 17.34-3.63 1.61-8.68 5.06-12.07 8.25-3.4 3.2-6.93 7.75-8.5 10.97-2.36 4.84-2.68 6.69-2.68 15.5 0 8.82 0.32 10.65 2.69 15.5 1.48 3.02 3.51 6.43 4.5 7.56 1 1.13 3.84 3.63 6.31 5.54 2.61 2.02 7.24 4.26 11 5.31 4.88 1.38 8.5 1.7 14.5 1.3 4.4-0.29 13.18-1.72 19.5-3.17 6.33-1.46 17.13-4 24-5.65 6.88-1.65 28.03-6.59 47-10.96 18.98-4.38 36.19-8.4 38.25-8.94 2.06-0.55 3.76-0.65 3.76-0.24 0 0.41-1.04 1.42-2.31 2.25-1.28 0.82-14.67 9.22-29.76 18.65-20.45 12.78-28.88 18.64-33.09 23-3.11 3.22-6.69 8.1-7.96 10.85-1.81 3.94-2.31 6.8-2.34 13.5-0.04 7.12 0.37 9.39 2.54 14 1.43 3.02 3.73 6.85 5.12 8.5 1.39 1.65 4.95 4.31 7.91 5.92 3.84 2.08 7.25 3.06 11.88 3.4 3.58 0.26 8.75-0.07 11.5-0.74 2.75-0.67 10.4-3.48 17-6.25 6.6-2.77 31.13-14.04 54.5-25.05 23.38-11.02 44.3-20.68 46.5-21.47 2.2-0.79 12.1-2.31 22-3.37 9.9-1.07 18.79-1.94 19.75-1.94 1.54 0 1.82 1.45 2.29 12.25 0.3 6.74 0.99 18.32 1.55 25.75 0.55 7.42 1.9 20.92 3 30 1.09 9.07 2.9 21.9 4.01 28.5 1.12 6.6 3.61 19.65 5.56 29 1.94 9.35 5.93 25.32 8.87 35.5 2.94 10.17 6.98 23.22 8.98 29 2 5.77 6.3 17.25 9.54 25.5 3.24 8.25 6.47 15.84 7.17 16.87 1.01 1.48 1.7 1.66 3.28 0.84 1.1-0.56 7.85-5.6 15-11.19 7.15-5.59 19.75-14.69 28-20.22 8.25-5.53 21.53-13.28 29.5-17.22 7.98-3.95 20.13-9.06 27-11.36 6.88-2.3 13.29-4.19 14.25-4.2 1.26-0.02 3.84 4.15 9.25 14.98 4.13 8.25 10.5 20.06 14.17 26.25 3.67 6.19 11.25 18.22 16.86 26.75 5.6 8.52 15.26 22.25 21.47 30.5 6.21 8.25 14.7 19.05 18.87 24 4.17 4.95 15.47 17.05 25.11 26.89 9.64 9.84 19.55 19.18 22.02 20.76 2.48 1.58 5.4 2.89 6.5 2.9 1.1 0.01 3.24-0.9 4.75-2.02 1.51-1.12 4.42-5.52 6.45-9.78 2.03-4.26 7.7-14.5 12.59-22.75 4.9-8.25 12.3-19.95 16.46-26 4.15-6.05 11.94-16.85 17.3-24 5.36-7.15 12.83-16.54 16.6-20.87 4.21-4.84 8.59-8.74 11.35-10.13 2.48-1.24 8.78-3.68 14-5.41 5.23-1.73 34.93-9.46 66-17.17 31.08-7.72 63.25-16.24 71.5-18.94 8.33-2.74 21.23-8 29-11.85 7.7-3.8 16.93-9.06 20.5-11.68 3.58-2.61 9.16-7.05 12.4-9.85 3.24-2.81 8.77-8.7 12.27-13.1 3.5-4.4 8.4-12.05 10.87-17 2.48-4.95 5.45-12.83 6.61-17.5 1.69-6.82 2.01-10.47 1.61-18.5-0.36-7.16-1.16-11.71-2.83-16-1.28-3.3-3.7-7.78-5.38-9.94-1.68-2.17-4.85-5.34-7.05-7.04-2.2-1.7-7.6-4.38-12-5.97-4.4-1.58-8.32-3.14-8.72-3.46-0.4-0.33 3.14-4.87 7.86-10.09 4.73-5.23 11.29-12.88 14.58-17 3.29-4.13 8.83-11.78 12.31-17 3.47-5.23 9.02-14.68 12.33-21 3.3-6.33 7.38-14.99 9.07-19.25 1.69-4.26 4.44-12.59 6.1-18.5 1.67-5.91 4.13-16.6 5.46-23.75 1.33-7.15 2.93-20.43 3.54-29.5 0.62-9.08 0.83-19.43 0.47-23-0.37-3.58-1.3-7.51-2.08-8.75-0.78-1.24-3.11-2.7-5.17-3.25-2.06-0.54-10.5-1-18.75-1-8.25-0.01-25.35-0.91-38-2.01-12.65-1.1-28.4-2.69-35-3.53-6.6-0.85-20.1-2.91-30-4.59-9.9-1.68-26.32-4.82-36.5-6.98-10.17-2.15-27.95-6.41-39.5-9.45-11.55-3.05-30.22-8.63-41.5-12.41-11.27-3.79-26.57-9.34-34-12.35-7.42-3.01-20.02-8.47-28-12.13-7.97-3.67-21.92-10.77-31-15.79-9.07-5.03-18.97-10.7-22-12.62-3.02-1.92-16.07-10.31-29-18.65-12.92-8.34-28.9-18.34-35.5-22.22-6.6-3.88-18.07-10.23-25.5-14.11-7.42-3.89-18.22-9.17-24-11.74-5.77-2.57-15.9-6.68-22.5-9.12-6.6-2.44-17.85-5.97-25-7.83-7.15-1.87-17.95-4.29-24-5.37-6.05-1.08-17.52-2.46-25.5-3.07-10.23-0.78-18.76-0.8-29-0.08-7.97 0.57-19.9 1.92-26.5 3.01-6.6 1.09-15.37 2.85-19.5 3.92-6.18 1.6-7.85 1.73-9.5 0.69-1.1-0.69-7.2-5.72-13.57-11.17-6.36-5.44-20.53-17.78-31.47-27.4-10.95-9.63-23.96-21.29-28.93-25.93-4.97-4.64-10.83-9.71-13.03-11.28q-4-2.85-7.5-2.78c-1.92 0.04-5.07 0.91-7 1.92zm1167.03 1189.32c-0.67 2.34-2.63 6.95-4.36 10.25-1.89 3.61-6.33 9.19-11.15 14.01-4.82 4.82-10.41 9.27-14.02 11.16-3.3 1.72-7.92 3.74-10.27 4.48-2.35 0.74-4.27 1.57-4.26 1.85 0.01 0.27 2.39 1.33 5.28 2.35 2.89 1.02 7.73 3.25 10.75 4.96 3.03 1.71 8.68 6.28 12.56 10.15 3.88 3.87 8.68 9.96 10.66 13.54 1.98 3.57 4.21 8.42 4.94 10.77 0.74 2.35 1.57 4.28 1.84 4.29 0.28 0 1.56-2.82 2.85-6.28 1.29-3.45 3.5-8.08 4.91-10.28 1.41-2.2 5.76-7.3 9.65-11.33 3.9-4.03 9.57-8.82 12.59-10.63 3.03-1.81 7.86-4.02 10.75-4.92 2.89-0.89 5.26-1.96 5.28-2.37 0.01-0.41-1.9-1.35-4.25-2.09-2.35-0.73-6.98-2.84-10.28-4.68-3.3-1.83-8.64-5.73-11.88-8.66-3.24-2.93-7.97-8.47-10.51-12.32-2.55-3.85-5.36-9.59-6.25-12.75-0.9-3.16-2.07-5.75-2.61-5.75-0.55 0-1.54 1.91-2.22 4.25zM303.72 252.04c0.43 0.02 4.38 3.13 8.78 6.91 4.4 3.78 15.42 13.5 24.5 21.6 9.08 8.1 24.15 21.34 33.5 29.42 9.35 8.08 21.05 18.97 26 24.2 4.95 5.22 12.2 13.74 16.1 18.91 3.91 5.18 9.35 13.02 12.1 17.42 2.75 4.4 7.51 12.73 10.59 18.5 3.08 5.77 7.92 15.67 10.76 22 2.85 6.33 7.1 16.67 9.45 23 2.35 6.33 6.55 19.15 9.33 28.5 2.79 9.35 6.86 24.2 9.05 33 2.19 8.8 6.47 27.7 9.51 42 3.04 14.3 6.74 32.75 8.23 41 1.48 8.25 2.47 15.67 2.18 16.5-0.35 0.99-2.54 1.73-6.41 2.18-3.24 0.37-23.89 2.71-45.89 5.19-22 2.47-51.92 5.48-66.5 6.68-21.06 1.73-27.99 2.67-33.75 4.57-3.99 1.31-11.86 4.45-17.5 6.98-5.64 2.54-24.42 11.49-41.75 19.9-17.33 8.41-35.78 17.09-41 19.29-5.23 2.2-11.64 4.72-14.25 5.6-2.61 0.89-5.76 1.61-7 1.62-1.24 0-3.35-0.79-4.69-1.75-1.34-0.97-3.03-3.22-3.75-5.01-0.93-2.32-1.04-4.33-0.38-7 0.57-2.33 2.37-5.04 4.75-7.16 2.1-1.88 5.62-4.55 7.82-5.93 2.2-1.38 14.35-8.79 27-16.46 12.65-7.67 31.52-19.41 41.93-26.08 11.33-7.25 19.96-13.49 21.5-15.54 2.17-2.89 2.57-4.48 2.57-10.17 0-5.82-0.34-7.12-2.5-9.42-1.38-1.48-3.74-3.31-5.25-4.09-1.51-0.77-4.55-1.4-6.75-1.4-2.2 0-13.34 2.22-24.75 4.94-11.41 2.72-37.85 9-58.75 13.95-20.9 4.96-48.13 11.32-60.5 14.15-12.38 2.83-24.98 5.39-28 5.69-3.97 0.39-6.4 0.08-8.75-1.1-1.79-0.89-4.15-3.09-5.25-4.88-1.21-1.98-1.99-5-1.99-7.75 0-2.75 0.78-5.77 1.99-7.75 1.16-1.88 4.11-4.3 7-5.75 2.75-1.37 19.29-6.81 36.75-12.07 17.46-5.26 39.4-11.99 48.75-14.94 9.35-2.96 27.35-8.49 40-12.29 12.65-3.81 24.91-7.88 27.25-9.06 2.34-1.18 5.25-3.6 6.48-5.39 1.61-2.34 2.3-5 2.5-9.5 0.25-5.86 0.07-6.46-2.98-9.62-1.79-1.86-5.05-3.86-7.25-4.46-2.85-0.77-16.96-0.8-49-0.1-24.75 0.54-67.05 1.36-94 1.81-26.95 0.45-51.7 0.44-55-0.02-3.89-0.55-7.14-1.73-9.25-3.36-1.79-1.37-3.92-3.85-4.75-5.5-0.83-1.65-1.5-5.14-1.5-7.75-0.01-3.41 0.7-5.81 2.5-8.5 1.37-2.06 3.96-4.49 5.75-5.4 1.79-0.9 4.6-2.04 6.25-2.51 1.65-0.48 11.1-1.52 21-2.32 9.9-0.8 37.58-2.83 61.5-4.51 23.92-1.69 55.42-3.94 70-5.02 14.58-1.08 30.1-2.24 34.5-2.58 4.4-0.35 9.35-1.17 11-1.84 1.65-0.66 4.1-2.75 5.45-4.64 1.4-1.95 2.65-5.37 2.91-7.93 0.34-3.36-0.07-5.38-1.62-8-1.14-1.92-3.8-4.48-5.91-5.67-2.1-1.19-10.36-3.98-18.33-6.19-7.98-2.21-25.53-6.96-39-10.55-13.48-3.6-40.92-10.96-61-16.35-20.08-5.4-38.05-10.69-39.93-11.77-1.89-1.09-4.26-3.32-5.26-4.97-1.01-1.65-1.89-4.8-1.95-7-0.07-2.2 0.61-5.46 1.51-7.25 0.9-1.79 3.09-4.14 4.88-5.23 1.79-1.09 5.05-2.26 7.25-2.59 2.62-0.4 11.08 0.65 24.5 3.04 11.27 2.01 35.58 6.34 54 9.61 18.42 3.28 50.83 8.87 72 12.44 21.17 3.56 52.34 8.72 69.25 11.47 16.91 2.76 31.54 5.02 32.5 5.02 1.43 0.01 2.07-1.78 3.51-9.75 0.97-5.37 1.42-10.08 1-10.47-0.42-0.38-5.49-1.62-11.26-2.74-5.78-1.13-10.5-2.03-10.5-2.01 0 0.02-3.15-3.5-7-7.83-3.85-4.32-12.85-14.75-20-23.17-7.15-8.43-15.63-18.74-18.84-22.93-3.21-4.18-7.35-10.76-9.2-14.61-1.85-3.85-3.86-10.15-4.48-14-0.77-4.83-0.81-8.71-0.12-12.5 0.54-3.02 1.91-7.64 3.04-10.25 1.12-2.61 2.39-4.73 2.82-4.71zm169.78 67.42c15.26 0.25 21.65 0.82 32.5 2.88 7.42 1.42 18.9 4.12 25.5 6.01 6.6 1.89 17.85 5.76 25 8.61 7.15 2.84 21.55 9.38 32 14.53 10.45 5.15 25.53 13.28 33.5 18.06 7.97 4.78 25.3 15.77 38.5 24.42 13.2 8.65 27.37 17.75 31.5 20.23 4.12 2.49 12.9 7.43 19.5 11 6.6 3.56 18.53 9.53 26.5 13.26 7.97 3.72 20.58 9.22 28 12.22 7.42 3 20.7 7.92 29.5 10.95 8.8 3.03 25.9 8.37 38 11.86 12.1 3.49 31.22 8.4 42.5 10.9 11.28 2.5 28.6 5.9 38.5 7.55 9.9 1.66 23.4 3.7 30 4.54 6.6 0.84 21.9 2.42 34 3.51 12.1 1.09 29.15 2.33 37.88 2.75 12.71 0.61 16 1.06 16.44 2.26 0.31 0.83 0.02 8.25-0.63 16.5-0.66 8.25-2.27 19.95-3.57 26-1.31 6.05-4.26 16.63-6.56 23.5-2.3 6.88-5.88 16.1-7.96 20.5-2.07 4.4-6.45 12.5-9.72 18-3.28 5.5-9.51 14.72-13.87 20.5-4.35 5.78-12.88 15.6-18.96 21.84-10.09 10.35-11.31 11.3-14.05 10.85-1.65-0.28-7.95-2.6-14-5.17-6.05-2.57-17.75-7.98-26-12.03-8.25-4.05-20.63-10.59-27.5-14.54-6.88-3.95-18.35-11.17-25.5-16.04-7.15-4.87-18.85-13.52-26-19.23-7.15-5.71-19.3-16.23-27-23.37-7.7-7.14-18.95-18.47-25-25.18-6.05-6.7-11.34-12.17-11.75-12.16-0.41 0.02-4.11 3.07-8.22 6.78-5.64 5.1-7.25 7.12-6.59 8.25 0.48 0.83 5.34 6.45 10.79 12.5 5.46 6.05 16.19 17.02 23.85 24.37 7.65 7.35 19.09 17.54 25.42 22.64 6.33 5.1 16.9 13.19 23.5 17.99 6.6 4.79 17.85 12.36 25 16.81 7.15 4.45 22 12.63 33 18.19 11 5.55 29.34 14.12 40.74 19.05 11.41 4.92 20.75 9.17 20.74 9.45 0 0.28-9.55 5.22-21.22 11-11.67 5.78-28.65 14.95-37.74 20.38-9.09 5.43-23.27 14.43-31.52 19.99-8.25 5.56-21.53 15.01-29.5 21.01-7.97 5.99-20.8 16.18-28.5 22.63-7.7 6.46-19.85 17.14-27 23.75-7.15 6.6-17.28 16.63-22.5 22.28-5.22 5.65-14.8 16.62-21.27 24.37-6.47 7.75-15.85 19.72-20.83 26.59-4.99 6.88-13.87 20.01-19.73 29.18-5.87 9.17-12.38 19.52-18.29 29.32l-8.53-8.5c-4.7-4.67-13.04-13.67-18.54-20-5.5-6.33-15.93-19.37-23.17-29-7.24-9.62-18.16-25.37-24.26-35-6.11-9.62-13.26-21.33-15.9-26-2.65-4.67-8.34-15.7-12.67-24.5-4.32-8.8-11.41-25-15.75-36-4.34-11-11.06-29.67-14.94-41.5-3.87-11.83-8.87-27.58-11.1-35-2.23-7.42-6.94-24.97-10.46-39-3.52-14.03-10.97-48-16.55-75.5-5.58-27.5-11.96-57.88-14.17-67.5-2.2-9.62-5.98-24.7-8.38-33.5-2.4-8.8-6.69-22.75-9.54-31-2.85-8.25-7.56-20.62-10.46-27.5-2.9-6.87-7.99-18.12-11.31-25-3.32-6.87-8.71-17-11.97-22.5-3.27-5.5-10.73-16.75-16.58-25-5.86-8.25-10.53-15.1-10.37-15.23 0.15-0.12 4.1-0.9 8.77-1.73 4.67-0.83 12.33-1.94 17-2.45 4.67-0.52 17.05-0.81 27.5-0.63zm519.25 384.61c0.69-0.04 1.92 1.51 2.75 3.43 0.84 1.96 1.53 6.7 1.58 10.75 0.04 3.99-0.47 9.5-1.14 12.25-0.67 2.75-3.06 8.59-5.33 12.97-2.8 5.43-6.66 10.64-12.11 16.38-4.81 5.05-11.79 10.92-17.5 14.72-5.22 3.47-13.44 8.14-18.25 10.37-4.81 2.23-14.26 5.88-21 8.1-6.74 2.23-18.78 5.8-26.75 7.95-7.97 2.15-24.17 6.18-36 8.96-11.83 2.78-28.03 6.6-36 8.48-7.97 1.88-14.61 3.23-14.75 3-0.14-0.24 6.61-6.32 15-13.53 8.39-7.2 23.12-19.01 32.75-26.25 9.62-7.24 23.58-17.24 31-22.23 7.42-4.99 18.45-12.02 24.5-15.62 6.05-3.6 16.4-9.5 23-13.11 6.6-3.62 16.05-8.48 21-10.82 4.95-2.34 15.08-6.83 22.5-9.99 7.42-3.16 14.06-5.78 14.75-5.81z"/>
</svg>
